<svg width="46" height="46" viewBox="0 0 46 46" fill="none" xmlns="http://www.w3.org/2000/svg">
<path d="M23 29.7083C27.2359 29.7083 30.6667 26.2775 30.6667 22.0417V11.5C30.6667 7.26416 27.2359 3.83333 23 3.83333C18.7642 3.83333 15.3334 7.26416 15.3334 11.5V22.0417C15.3334 26.2775 18.7642 29.7083 23 29.7083Z" stroke="white" stroke-width="2.5" stroke-linecap="round" stroke-linejoin="round"/>
<path d="M8.33752 18.4958V21.7542C8.33752 29.8425 14.9117 36.4167 23 36.4167C31.0884 36.4167 37.6625 29.8425 37.6625 21.7542V18.4958" stroke="white" stroke-width="2.5" stroke-linecap="round" stroke-linejoin="round"/>
<path d="M20.3358 12.3242C22.0608 11.6917 23.9392 11.6917 25.6642 12.3242" stroke="white" stroke-width="2.5" stroke-linecap="round" stroke-linejoin="round"/>
<path d="M21.4667 16.3875C22.4825 16.1192 23.5367 16.1192 24.5525 16.3875" stroke="white" stroke-width="2.5" stroke-linecap="round" stroke-linejoin="round"/>
<path d="M23 36.4167V42.1667" stroke="white" stroke-width="2.5" stroke-linecap="round" stroke-linejoin="round"/>
</svg>
