<svg width="36" height="36" viewBox="0 0 36 36" fill="#fff" xmlns="http://www.w3.org/2000/svg">
<path d="M13.395 3H7.53C4.5 3 3 4.5 3 7.53V13.41C3 16.5 4.5 18 7.53 17.925H13.41C16.5 18 18 16.5 17.925 13.395V7.53C18 4.5 16.5 3 13.395 3ZM13.515 14.64C12.495 14.64 11.505 14.25 10.68 13.56C9.75 14.235 8.625 14.64 7.41 14.64C6.795 14.64 6.285 14.13 6.285 13.515C6.285 12.9 6.795 12.39 7.41 12.39C8.94 12.39 10.215 11.34 10.68 9.9H7.41C6.795 9.9 6.285 9.39 6.285 8.775C6.285 8.16 6.795 7.65 7.41 7.65H9.345C9.405 7.08 9.87 6.63 10.455 6.63C11.04 6.63 11.505 7.08 11.565 7.65H11.955C11.97 7.65 11.985 7.65 11.985 7.65H12.015H13.5C14.115 7.65 14.625 8.16 14.625 8.775C14.625 9.39 14.13 9.9 13.5 9.9H13.005C12.87 10.62 12.585 11.295 12.21 11.91C12.615 12.21 13.05 12.39 13.515 12.39C14.13 12.39 14.64 12.9 14.64 13.515C14.64 14.13 14.13 14.64 13.515 14.64Z" fill="currentColor"/>
<path d="M13.5 34.125C7.095 34.125 1.875 28.905 1.875 22.5C1.875 21.885 2.385 21.375 3 21.375C3.615 21.375 4.125 21.885 4.125 22.5C4.125 26.94 7.215 30.66 11.37 31.635L10.965 30.96C10.65 30.42 10.815 29.73 11.355 29.415C11.88 29.1 12.585 29.265 12.9 29.805L14.475 32.43C14.685 32.775 14.685 33.21 14.49 33.555C14.28 33.9 13.905 34.125 13.5 34.125Z" fill="currentColor"/>
<path d="M33 14.625C32.385 14.625 31.875 14.115 31.875 13.5C31.875 9.06 28.785 5.34 24.63 4.365L25.035 5.04C25.35 5.58 25.185 6.27 24.645 6.585C24.12 6.9 23.415 6.735 23.1 6.195L21.525 3.57C21.315 3.225 21.315 2.79 21.51 2.445C21.72 2.1 22.095 1.875 22.5 1.875C28.905 1.875 34.125 7.095 34.125 13.5C34.125 14.115 33.615 14.625 33 14.625Z" fill="currentColor"/>
<path d="M25.38 17.775C21.18 17.775 17.76 21.18 17.76 25.395C17.76 29.595 21.165 33.015 25.38 33.015C29.58 33.015 33 29.61 33 25.395C33 21.18 29.595 17.775 25.38 17.775ZM29.1 29.01C28.545 29.28 27.87 29.07 27.585 28.5L27.33 27.99H23.445L23.19 28.5C22.995 28.89 22.59 29.115 22.185 29.115C22.02 29.115 21.84 29.07 21.69 28.995C21.135 28.71 20.91 28.035 21.18 27.48L24.39 21.075C24.585 20.7 24.975 20.46 25.395 20.46C25.815 20.46 26.205 20.7 26.4 21.09L29.61 27.495C29.88 28.05 29.655 28.725 29.1 29.01Z" fill="currentColor"/>
<path d="M24.5699 25.74H26.2049L25.3799 24.105L24.5699 25.74Z" fill="currentColor"/>
</svg>
