<svg width="29" height="30" viewBox="0 0 29 30" fill="none" xmlns="http://www.w3.org/2000/svg">
<path d="M10.9 12.6C12.2255 12.6 13.3 11.5255 13.3 10.2C13.3 8.87452 12.2255 7.8 10.9 7.8C9.57452 7.8 8.5 8.87452 8.5 10.2C8.5 11.5255 9.57452 12.6 10.9 12.6Z" stroke="#CD1F20" stroke-width="2" stroke-linecap="round" stroke-linejoin="round"/>
<path d="M15.7 3H10.9C4.9 3 2.5 5.4 2.5 11.4V18.6C2.5 24.6 4.9 27 10.9 27H18.1C24.1 27 26.5 24.6 26.5 18.6V12.6" stroke="#CD1F20" stroke-width="2" stroke-linecap="round" stroke-linejoin="round"/>
<path d="M21.7 10.2V3L24.1 5.4" stroke="#CD1F20" stroke-width="2" stroke-linecap="round" stroke-linejoin="round"/>
<path d="M21.6999 3L19.2999 5.4" stroke="#CD1F20" stroke-width="2" stroke-linecap="round" stroke-linejoin="round"/>
<path d="M3.30396 23.34L9.21995 19.368C10.168 18.732 11.536 18.804 12.388 19.536L12.784 19.884C13.72 20.688 15.232 20.688 16.168 19.884L21.16 15.6C22.096 14.796 23.608 14.796 24.544 15.6L26.5 17.28" stroke="#CD1F20" stroke-width="2" stroke-linecap="round" stroke-linejoin="round"/>
</svg>
